<svg width="800" height="600" viewBox="0 0 800 600" xmlns="http://www.w3.org/2000/svg">
  <defs>
    <linearGradient id="autoBg2" x1="0%" y1="0%" x2="100%" y2="100%">
      <stop offset="0%" style="stop-color:#0c4a6e;stop-opacity:1" />
      <stop offset="100%" style="stop-color:#164e63;stop-opacity:1" />
    </linearGradient>
  </defs>
  
  <rect width="800" height="600" fill="url(#autoBg2)"/>
  
  <!-- Workflow boxes -->
  <rect x="100" y="200" width="120" height="80" rx="12" fill="#0ea5e9"/>
  <text x="160" y="245" font-family="Arial, sans-serif" font-size="12" font-weight="bold" fill="#ffffff" text-anchor="middle">Trigger</text>
  
  <rect x="280" y="200" width="120" height="80" rx="12" fill="#10b981"/>
  <text x="340" y="245" font-family="Arial, sans-serif" font-size="12" font-weight="bold" fill="#ffffff" text-anchor="middle">Process</text>
  
  <rect x="460" y="200" width="120" height="80" rx="12" fill="#f59e0b"/>
  <text x="520" y="245" font-family="Arial, sans-serif" font-size="12" font-weight="bold" fill="#ffffff" text-anchor="middle">Action</text>
  
  <!-- Arrows -->
  <polygon points="225,240 275,240 265,230 275,240 265,250" fill="#ffffff"/>
  <polygon points="405,240 455,240 445,230 455,240 445,250" fill="#ffffff"/>
  
  <!-- Dashboard -->
  <rect x="200" y="350" width="400" height="200" rx="15" fill="#1e293b" stroke="#475569" stroke-width="2"/>
  <text x="400" y="380" font-family="Arial, sans-serif" font-size="16" font-weight="bold" fill="#ffffff" text-anchor="middle">Automation Dashboard</text>
  
  <!-- Stats -->
  <rect x="220" y="400" width="100" height="60" rx="8" fill="#0ea5e9"/>
  <text x="270" y="435" font-family="Arial, sans-serif" font-size="20" font-weight="bold" fill="#ffffff" text-anchor="middle">247</text>
  
  <rect x="340" y="400" width="100" height="60" rx="8" fill="#22c55e"/>
  <text x="390" y="435" font-family="Arial, sans-serif" font-size="20" font-weight="bold" fill="#ffffff" text-anchor="middle">98%</text>
  
  <rect x="460" y="400" width="100" height="60" rx="8" fill="#f59e0b"/>
  <text x="510" y="435" font-family="Arial, sans-serif" font-size="20" font-weight="bold" fill="#ffffff" text-anchor="middle">3.2h</text>
</svg>